<svg width="20" height="20" viewBox="0 0 20 20" fill="none" xmlns="http://www.w3.org/2000/svg">
<path d="M15.7056 12.7244C15.5823 12.5498 15.6734 12.3779 15.7344 12.3137C15.8124 12.2489 16.0179 12.09 16.1699 11.9308C16.437 11.651 16.5024 11.5974 16.8376 11.0617C17.2386 10.4209 17.4067 9.42483 17.154 8.59746C16.9206 7.83315 16.5705 7.19271 15.6892 6.41295C14.821 5.64486 13.7313 5.0836 12.2664 4.73241C10.8016 4.38122 8.98955 4.34948 7.51444 4.67289C6.03934 4.9963 5.20138 5.3981 4.4122 5.96454C3.58015 6.56176 3.0542 7.27406 2.79739 8.13714C2.58022 8.86699 2.8015 9.34745 3.02749 9.65102C3.26678 9.97245 3.82052 10.2572 4.79639 10.0558C5.8154 9.84546 6.58583 9.37324 7.49595 9.05579C8.40608 8.73833 9.14775 8.6292 10.0455 8.63515C10.9433 8.64111 11.6398 8.8792 11.8617 9.25023C12.0836 9.62126 12.0014 9.93078 11.7487 10.2443C11.496 10.5578 10.929 10.6451 10.5345 10.6371C10.1401 10.6292 9.61822 10.5935 9.12309 10.6808C8.62797 10.7681 8.08148 10.9824 8.07737 11.2701C8.07326 11.5577 8.24173 11.6371 8.91559 11.7462C9.58946 11.8554 10.8201 11.7264 11.4714 11.53C12.1226 11.3335 13.0882 10.899 13.1745 9.98236C13.2608 9.06571 12.7205 8.62523 12.3096 8.37325C11.8987 8.12127 11.1734 7.84349 10.0702 7.80976C8.96695 7.77603 8.43485 7.8554 7.69524 8.02802C6.95563 8.20063 6.0907 8.62126 5.89758 8.70063C5.70446 8.77999 5.3778 8.90301 5.15797 8.93674C4.93815 8.97047 4.36495 9.10142 4.07938 8.57166C3.79381 8.0419 4.22936 7.4308 4.77995 7.03993C5.33055 6.64906 6.09686 6.21256 7.02137 5.96454C7.94588 5.71653 9.2402 5.43478 11.12 5.65502C12.9999 5.87526 14.401 6.71255 15.04 7.32564C15.6789 7.93873 15.8864 8.37722 15.983 8.6669C16.0795 8.95658 16.2377 9.49229 16.0549 10.0935C15.872 10.6947 15.5515 11.0478 15.3194 11.3613C15.0872 11.6748 14.9208 11.8693 14.9763 12.4823C15.0317 13.0954 15.722 14.0597 16.0672 14.6847C16.4123 15.3097 16.4226 15.7819 15.9706 16.1093C15.5186 16.4367 14.7277 16.1331 14.3188 15.8057C13.91 15.4784 13.1807 14.7938 12.4102 14.2661C11.6398 13.7383 10.6372 13.7343 10.2489 13.7442C9.86065 13.7542 8.79849 13.9169 7.73016 13.6311C6.66184 13.3454 6.16877 12.8534 5.92224 12.3216C5.6757 11.7899 5.76404 11.3197 5.82157 11.026C5.87909 10.7324 6.15028 10.7522 6.21397 10.7582C6.27766 10.7641 6.56939 10.8355 6.51803 11.1451C6.46667 11.4546 6.39682 11.8177 6.70088 12.2462C7.00494 12.6748 7.55759 12.9288 8.08353 13.026C8.60948 13.1232 9.03064 13.1292 9.66136 13.0974C10.2921 13.0657 11.1488 12.9962 11.9233 13.2819C12.6979 13.5677 13.0471 13.8256 13.4375 14.1669C13.8278 14.5081 13.9162 14.5875 14.4483 15.0161C14.9804 15.4446 15.3995 15.6748 15.5433 15.4883C15.6871 15.3018 15.4262 14.9129 15.3707 14.8137C15.3153 14.7145 15.2783 14.7125 14.9208 14.1311C14.5633 13.5498 14.2305 12.9208 14.2531 12.2125C14.2757 11.5042 14.701 11.028 14.7996 10.899C14.8785 10.7959 14.9708 10.6722 15.0071 10.6232L15.153 10.405C15.2584 10.2515 15.4578 9.83157 15.4118 9.3792C15.3543 8.81372 15.1201 8.30976 14.325 7.6312C13.5299 6.95263 12.2192 6.49033 11.1981 6.3574C10.177 6.22446 8.91765 6.19272 7.61717 6.52406C6.31669 6.85541 5.70241 7.27009 5.43327 7.4308C5.16414 7.59151 4.66079 8.01016 4.81899 8.18674C4.97718 8.36333 5.26481 8.20262 5.77021 7.9923C6.2756 7.78199 6.781 7.38715 8.35678 7.18675C9.93255 6.98636 12.3548 7.11136 13.308 8.28595C14.2613 9.46054 13.9696 10.4387 13.532 11.0002C13.0944 11.5617 12.3774 12.0399 11.3419 12.27C10.3065 12.5002 9.32032 12.5121 8.52113 12.3653C7.72195 12.2185 7.41172 11.7899 7.37063 11.4169C7.32954 11.0439 7.50006 10.5657 8.24173 10.2284C8.98339 9.8911 9.80929 9.94863 10.4688 9.95657C11.1283 9.96451 11.2556 9.80379 11.2495 9.6788C11.2433 9.5538 11.0646 9.3534 10.3702 9.32761C9.67574 9.30181 9.27512 9.32166 8.77794 9.42483C8.28076 9.528 8.12873 9.53396 7.34187 9.85935C6.55501 10.1847 6.16055 10.3653 5.6983 10.524C5.23604 10.6828 4.48616 10.8792 3.71779 10.7701C2.94942 10.6609 2.60017 10.3296 2.32897 9.89903C2.12648 9.57755 1.81125 9.0161 2.14818 7.84548C2.48511 6.67485 3.49797 5.64059 4.50876 5.06177C5.61407 4.42884 6.79538 3.95203 8.86217 3.78797C10.5119 3.65702 11.8062 3.87924 13.0615 4.23241C14.3168 4.58559 16.0138 5.53796 16.9424 6.71255C17.8652 7.8798 17.9501 8.89813 17.9713 9.15227L17.9717 9.15697C17.9922 9.403 18.1073 10.0022 17.6594 10.9962C17.3011 11.7915 16.765 12.3554 16.5418 12.5379L16.361 12.6986C16.3267 12.7284 16.2406 12.7986 16.1699 12.8415C16.0816 12.895 15.8597 12.9427 15.7056 12.7244Z" fill="white"/>
</svg>
